<svg width="120" height="120" viewBox="0 0 120 120" fill="none" xmlns="http://www.w3.org/2000/svg">
  <!-- Background -->
  <circle cx="60" cy="60" r="50" fill="#F8FAFC"/>
  
  <!-- Performance optimization symbol - stylized "C" with speed lines -->
  <g transform="translate(60, 60)">
    <!-- Main "C" shape representing Compiled -->
    <path d="M15 -25 C25 -25 35 -15 35 0 C35 15 25 25 15 25 L5 25 C-15 25 -25 15 -25 0 C-25 -15 -15 -25 5 -25 L15 -25 Z" 
          fill="#6366F1"/>
    
    <!-- Inner cutout to create the "C" -->
    <path d="M10 -15 C15 -15 20 -10 20 0 C20 10 15 15 10 15 L0 15 C-10 15 -15 10 -15 0 C-15 -10 -10 -15 0 -15 L10 -15 Z" 
          fill="#F8FAFC"/>
    
    <!-- Speed/performance lines -->
    <g opacity="0.8">
      <rect x="25" y="-2" width="15" height="2" fill="#10B981" rx="1"/>
      <rect x="28" y="-8" width="12" height="2" fill="#10B981" rx="1" opacity="0.7"/>
      <rect x="28" y="4" width="12" height="2" fill="#10B981" rx="1" opacity="0.7"/>
      <rect x="31" y="-14" width="9" height="2" fill="#10B981" rx="1" opacity="0.5"/>
      <rect x="31" y="10" width="9" height="2" fill="#10B981" rx="1" opacity="0.5"/>
    </g>
  </g>
  
  <!-- Corner accent dots -->
  <circle cx="20" cy="20" r="3" fill="#6366F1" opacity="0.3"/>
  <circle cx="100" cy="100" r="3" fill="#10B981" opacity="0.3"/>
</svg>