<svg width="120" height="120" viewBox="0 0 120 120" xmlns="http://www.w3.org/2000/svg">
  <defs>
    <linearGradient id="grad1" x1="0%" y1="0%" x2="100%" y2="100%">
      <stop offset="0%" style="stop-color:#6366f1;stop-opacity:1" />
      <stop offset="100%" style="stop-color:#8b5cf6;stop-opacity:1" />
    </linearGradient>
  </defs>
  
  <!-- Background circle -->
  <circle cx="60" cy="60" r="55" fill="none" stroke="#f1f5f9" stroke-width="2"/>
  
  <!-- Input shape (left) -->
  <rect x="20" y="45" width="25" height="30" rx="4" fill="#64748b" opacity="0.7"/>
  
  <!-- Transformation arrow -->
  <path d="M50 60 L70 60 M65 55 L70 60 L65 65" stroke="url(#grad1)" stroke-width="3" fill="none" stroke-linecap="round" stroke-linejoin="round"/>
  
  <!-- Output shapes (right) - representing atomic CSS -->
  <rect x="75" y="40" width="8" height="8" rx="2" fill="url(#grad1)"/>
  <rect x="87" y="40" width="8" height="8" rx="2" fill="url(#grad1)"/>
  <rect x="99" y="40" width="8" height="8" rx="2" fill="url(#grad1)"/>
  
  <rect x="75" y="52" width="8" height="8" rx="2" fill="url(#grad1)"/>
  <rect x="87" y="52" width="8" height="8" rx="2" fill="url(#grad1)"/>
  <rect x="99" y="52" width="8" height="8" rx="2" fill="url(#grad1)"/>
  
  <rect x="75" y="64" width="8" height="8" rx="2" fill="url(#grad1)"/>
  <rect x="87" y="64" width="8" height="8" rx="2" fill="url(#grad1)"/>
  <rect x="99" y="64" width="8" height="8" rx="2" fill="url(#grad1)"/>
  
  <rect x="75" y="76" width="8" height="8" rx="2" fill="url(#grad1)"/>
  <rect x="87" y="76" width="8" height="8" rx="2" fill="url(#grad1)"/>
  <rect x="99" y="76" width="8" height="8" rx="2" fill="url(#grad1)"/>
</svg>