<svg width="120" height="120" viewBox="0 0 120 120" xmlns="http://www.w3.org/2000/svg">
  <defs>
    <linearGradient id="grad1" x1="0%" y1="0%" x2="100%" y2="100%">
      <stop offset="0%" style="stop-color:#6366f1;stop-opacity:1" />
      <stop offset="100%" style="stop-color:#8b5cf6;stop-opacity:1" />
    </linearGradient>
  </defs>
  
  <!-- Outer transformation ring -->
  <circle cx="60" cy="60" r="50" fill="none" stroke="url(#grad1)" stroke-width="3" opacity="0.3"/>
  
  <!-- Input code blocks (left side) -->
  <rect x="20" y="35" width="25" height="4" rx="2" fill="#6366f1" opacity="0.8"/>
  <rect x="20" y="45" width="20" height="4" rx="2" fill="#6366f1" opacity="0.6"/>
  <rect x="20" y="55" width="22" height="4" rx="2" fill="#6366f1" opacity="0.8"/>
  <rect x="20" y="65" width="18" height="4" rx="2" fill="#6366f1" opacity="0.6"/>
  <rect x="20" y="75" width="25" height="4" rx="2" fill="#6366f1" opacity="0.8"/>
  
  <!-- Transformation arrow -->
  <path d="M50 60 L70 60 M65 55 L70 60 L65 65" stroke="url(#grad1)" stroke-width="2.5" fill="none" stroke-linecap="round" stroke-linejoin="round"/>
  
  <!-- Output atomic blocks (right side) -->
  <rect x="75" y="40" width="8" height="8" rx="1" fill="#8b5cf6"/>
  <rect x="85" y="40" width="8" height="8" rx="1" fill="#8b5cf6" opacity="0.8"/>
  <rect x="95" y="40" width="8" height="8" rx="1" fill="#8b5cf6" opacity="0.6"/>
  
  <rect x="75" y="52" width="8" height="8" rx="1" fill="#8b5cf6" opacity="0.8"/>
  <rect x="85" y="52" width="8" height="8" rx="1" fill="#8b5cf6"/>
  <rect x="95" y="52" width="8" height="8" rx="1" fill="#8b5cf6" opacity="0.8"/>
  
  <rect x="75" y="64" width="8" height="8" rx="1" fill="#8b5cf6" opacity="0.6"/>
  <rect x="85" y="64" width="8" height="8" rx="1" fill="#8b5cf6" opacity="0.8"/>
  <rect x="95" y="64" width="8" height="8" rx="1" fill="#8b5cf6"/>
</svg>