<svg width="120" height="120" viewBox="0 0 120 120" xmlns="http://www.w3.org/2000/svg">
  <defs>
    <linearGradient id="grad2" x1="0%" y1="0%" x2="100%" y2="100%">
      <stop offset="0%" style="stop-color:#3b82f6;stop-opacity:1" />
      <stop offset="100%" style="stop-color:#1d4ed8;stop-opacity:1" />
    </linearGradient>
  </defs>
  
  <!-- Central hub -->
  <circle cx="60" cy="60" r="12" fill="url(#grad2)"/>
  
  <!-- Atomic nodes connected to center -->
  <circle cx="30" cy="30" r="8" fill="#64748b" opacity="0.8"/>
  <circle cx="90" cy="30" r="8" fill="#64748b" opacity="0.8"/>
  <circle cx="30" cy="90" r="8" fill="#64748b" opacity="0.8"/>
  <circle cx="90" cy="90" r="8" fill="#64748b" opacity="0.8"/>
  
  <!-- Connection lines -->
  <line x1="38" y1="38" x2="52" y2="52" stroke="url(#grad2)" stroke-width="2" opacity="0.6"/>
  <line x1="82" y1="38" x2="68" y2="52" stroke="url(#grad2)" stroke-width="2" opacity="0.6"/>
  <line x1="38" y1="82" x2="52" y2="68" stroke="url(#grad2)" stroke-width="2" opacity="0.6"/>
  <line x1="82" y1="82" x2="68" y2="68" stroke="url(#grad2)" stroke-width="2" opacity="0.6"/>
  
  <!-- Additional smaller nodes -->
  <circle cx="60" cy="20" r="5" fill="#94a3b8"/>
  <circle cx="100" cy="60" r="5" fill="#94a3b8"/>
  <circle cx="60" cy="100" r="5" fill="#94a3b8"/>
  <circle cx="20" cy="60" r="5" fill="#94a3b8"/>
  
  <!-- Connections to smaller nodes -->
  <line x1="60" y1="25" x2="60" y2="48" stroke="#94a3b8" stroke-width="1.5" opacity="0.5"/>
  <line x1="95" y1="60" x2="72" y2="60" stroke="#94a3b8" stroke-width="1.5" opacity="0.5"/>
  <line x1="60" y1="95" x2="60" y2="72" stroke="#94a3b8" stroke-width="1.5" opacity="0.5"/>
  <line x1="25" y1="60" x2="48" y2="60" stroke="#94a3b8" stroke-width="1.5" opacity="0.5"/>
</svg>