<svg width="120" height="120" viewBox="0 0 120 120" xmlns="http://www.w3.org/2000/svg">
  <defs>
    <linearGradient id="speedGrad" x1="0%" y1="0%" x2="100%" y2="0%">
      <stop offset="0%" style="stop-color:#f59e0b;stop-opacity:1" />
      <stop offset="100%" style="stop-color:#ef4444;stop-opacity:1" />
    </linearGradient>
    <linearGradient id="trailGrad" x1="0%" y1="0%" x2="100%" y2="0%">
      <stop offset="0%" style="stop-color:#f59e0b;stop-opacity:0" />
      <stop offset="100%" style="stop-color:#f59e0b;stop-opacity:0.6" />
    </linearGradient>
  </defs>
  
  <!-- Speed/performance chevron pointing right -->
  <path d="M30 40 L70 60 L30 80 L35 75 L65 60 L35 45 Z" fill="url(#speedGrad)"/>
  
  <!-- Motion trails -->
  <rect x="15" y="55" width="25" height="3" rx="1.5" fill="url(#trailGrad)" opacity="0.7"/>
  <rect x="10" y="60" width="30" height="2" rx="1" fill="url(#trailGrad)" opacity="0.5"/>
  <rect x="20" y="65" width="20" height="2" rx="1" fill="url(#trailGrad)" opacity="0.6"/>
  
  <!-- Optimized output blocks -->
  <rect x="75" y="45" width="12" height="6" rx="1" fill="#ef4444" opacity="0.9"/>
  <rect x="89" y="45" width="8" height="6" rx="1" fill="#ef4444" opacity="0.7"/>
  <rect x="99" y="45" width="6" height="6" rx="1" fill="#ef4444" opacity="0.5"/>
  
  <rect x="75" y="57" width="10" height="6" rx="1" fill="#ef4444" opacity="0.8"/>
  <rect x="87" y="57" width="12" height="6" rx="1" fill="#ef4444" opacity="0.9"/>
  <rect x="101" y="57" width="4" height="6" rx="1" fill="#ef4444" opacity="0.6"/>
  
  <rect x="75" y="69" width="8" height="6" rx="1" fill="#ef4444" opacity="0.6"/>
  <rect x="85" y="69" width="10" height="6" rx="1" fill="#ef4444" opacity="0.8"/>
  <rect x="97" y="69" width="8" height="6" rx="1" fill="#ef4444" opacity="0.7"/>
  
  <!-- Performance indicator arc -->
  <path d="M60 25 A35 35 0 0 1 95 60" stroke="url(#speedGrad)" stroke-width="2" fill="none" opacity="0.4" stroke-linecap="round"/>
  
  <!-- Speed indicator dots -->
  <circle cx="85" cy="35" r="2" fill="#f59e0b"/>
  <circle cx="90" cy="45" r="1.5" fill="#f59e0b" opacity="0.8"/>
  <circle cx="92" cy="52" r="1" fill="#f59e0b" opacity="0.6"/>
</svg>