<?xml version="1.0" encoding="UTF-8" standalone="no"?>
<svg
   width="7.9507484"
   height="4.9338145"
   viewBox="0 0 7.9507484 4.9338145"
   role="presentation"
   version="1.1"
   id="svg51"
   sodipodi:docname="carat-down.svg"
   inkscape:version="1.1.1 (c3084ef, 2021-09-22)"
   xmlns:inkscape="http://www.inkscape.org/namespaces/inkscape"
   xmlns:sodipodi="http://sodipodi.sourceforge.net/DTD/sodipodi-0.dtd"
   xmlns="http://www.w3.org/2000/svg"
   xmlns:svg="http://www.w3.org/2000/svg">
  <defs
     id="defs55" />
  <sodipodi:namedview
     id="namedview53"
     pagecolor="#ffffff"
     bordercolor="#666666"
     borderopacity="1.0"
     inkscape:pageshadow="2"
     inkscape:pageopacity="0.0"
     inkscape:pagecheckerboard="0"
     showgrid="false"
     inkscape:zoom="36.125"
     inkscape:cx="-4.4013841"
     inkscape:cy="1.9792388"
     inkscape:window-width="1080"
     inkscape:window-height="1067"
     inkscape:window-x="0"
     inkscape:window-y="1065"
     inkscape:window-maximized="0"
     inkscape:current-layer="svg51"
     fit-margin-top="0"
     fit-margin-left="0"
     fit-margin-right="0"
     fit-margin-bottom="0" />
  <path
     d="m 0.27033217,0.25843994 a 1.009,1.009 0 0 0 0,1.41899996 l 2.93900003,2.965 c 0.218,0.215 0.5,0.322 0.779,0.322 0.279,0 0.556,-0.107 0.769,-0.322 l 2.93,-2.955 a 1.01,1.01 0 0 0 0,-1.41899996 0.987,0.987 0 0 0 -1.406,0 l -2.298,2.31699996 -2.307,-2.32699996 a 0.99,0.99 0 0 0 -1.40600003,0 z"
     fill="currentColor"
     fill-rule="evenodd"
     id="path49" />
  <path
     style="fill:#008000;stroke-width:0.0276817"
     d="m 3.6817522,4.9026469 c -0.06416,-0.02092 -0.171884,-0.07041 -0.239392,-0.109975 -0.138094,-0.08093 -3.13199253,-3.073708 -3.27235803,-3.271135 -0.342101,-0.481173 -0.1468746,-1.19218496 0.3973864,-1.44727796 0.1350018,-0.06327 0.1950805,-0.07422000316 0.4074834,-0.07422000316 0.42714843,0 0.39148123,-0.02753999684 1.78994123,1.382237963156 l 1.210042,1.219838 1.226652,-1.223621 c 1.399249,-1.39579096 1.373379,-1.37577596 1.780285,-1.37739496 0.185652,-7.3900316e-4 0.248799,0.01174 0.390599,0.0772 0.211652,0.0977 0.399841,0.286753 0.500764,0.503055 0.06584,0.14111 0.07749,0.201578 0.07745,0.402054 -8.3e-5,0.42595196 0.05233,0.36088696 -1.76452,2.19081696 -1.799615,1.812574 -1.715415,1.743715 -2.150154,1.758425 -0.14786,0.005 -0.281568,-0.0063 -0.354181,-0.03001 z"
     id="path495" />
</svg>
