<svg width="7.951" height="4.934" xmlns="http://www.w3.org/2000/svg">
    <path d="M.27.258a1.009 1.009 0 0 0 0 1.42l2.94 2.964c.217.215.5.322.778.322.28 0 .556-.107.77-.322l2.93-2.955a1.01 1.01 0 0 0 0-1.419.987.987 0 0 0-1.407 0L3.983 2.585 1.676.258a.99.99 0 0 0-1.406 0z" fill="currentColor" fill-rule="evenodd"/>
    <path style="fill:green;stroke-width:.0276817" d="M3.682 4.903a1.49 1.49 0 0 1-.24-.11C3.304 4.712.31 1.719.17 1.522-.172 1.04.023.329.567.074.702.011.762 0 .975 0c.427 0 .391-.028 1.79 1.382l1.21 1.22 1.227-1.224C6.6-.017 6.575.003 6.982.001a.74.74 0 0 1 .39.077c.212.098.4.287.501.503.066.141.078.202.078.402 0 .426.052.361-1.765 2.191-1.8 1.813-1.715 1.744-2.15 1.759a1.183 1.183 0 0 1-.354-.03z"/>
</svg>
