<?xml version="1.0" encoding="UTF-8"?>
<svg width="32" height="32" viewBox="0 0 32 32" version="1.1" xmlns="http://www.w3.org/2000/svg">
  <!-- Background circle -->
  <circle cx="16" cy="16" r="15" fill="#1E1E1E" />
  
  <!-- CSS curly brace left -->
  <path d="M11 8 C9 8, 9 12, 11 12 L11 14 C9 14, 9 16, 11 16 C9 16, 9 18, 11 18 L11 20 C9 20, 9 24, 11 24" 
        stroke="#61DAFB" fill="none" stroke-width="2"/>
  
  <!-- CSS curly brace right -->
  <path d="M21 8 C23 8, 23 12, 21 12 L21 14 C23 14, 23 16, 21 16 C23 16, 23 18, 21 18 L21 20 C23 20, 23 24, 21 24" 
        stroke="#61DAFB" fill="none" stroke-width="2"/>
  
  <!-- JS arrow -->
  <path d="M14 12 L18 16 L14 20" stroke="#F7DF1E" fill="none" stroke-width="2" stroke-linecap="round" stroke-linejoin="round"/>
</svg>